<svg xmlns="http://www.w3.org/2000/svg" width="504" height="504" viewBox="0 0 504 504">
<rect width="100%" height="100%" fill="white"/>
<text x="36" y="24" font-family="Arial" font-size="16">One element: local 48 x 48 K block</text>
<rect x="36" y="36" width="54" height="54" fill="#2f80ed" opacity="0.72"/>
<rect x="90" y="36" width="54" height="54" fill="#56cc9d" opacity="0.72"/>
<rect x="144" y="36" width="54" height="54" fill="#2f80ed" opacity="0.72"/>
<rect x="198" y="36" width="54" height="54" fill="#56cc9d" opacity="0.72"/>
<rect x="252" y="36" width="54" height="54" fill="#2f80ed" opacity="0.72"/>
<rect x="306" y="36" width="54" height="54" fill="#56cc9d" opacity="0.72"/>
<rect x="360" y="36" width="54" height="54" fill="#2f80ed" opacity="0.72"/>
<rect x="414" y="36" width="54" height="54" fill="#56cc9d" opacity="0.72"/>
<rect x="36" y="90" width="54" height="54" fill="#56cc9d" opacity="0.72"/>
<rect x="90" y="90" width="54" height="54" fill="#2f80ed" opacity="0.72"/>
<rect x="144" y="90" width="54" height="54" fill="#56cc9d" opacity="0.72"/>
<rect x="198" y="90" width="54" height="54" fill="#2f80ed" opacity="0.72"/>
<rect x="252" y="90" width="54" height="54" fill="#56cc9d" opacity="0.72"/>
<rect x="306" y="90" width="54" height="54" fill="#2f80ed" opacity="0.72"/>
<rect x="360" y="90" width="54" height="54" fill="#56cc9d" opacity="0.72"/>
<rect x="414" y="90" width="54" height="54" fill="#2f80ed" opacity="0.72"/>
<rect x="36" y="144" width="54" height="54" fill="#2f80ed" opacity="0.72"/>
<rect x="90" y="144" width="54" height="54" fill="#56cc9d" opacity="0.72"/>
<rect x="144" y="144" width="54" height="54" fill="#2f80ed" opacity="0.72"/>
<rect x="198" y="144" width="54" height="54" fill="#56cc9d" opacity="0.72"/>
<rect x="252" y="144" width="54" height="54" fill="#2f80ed" opacity="0.72"/>
<rect x="306" y="144" width="54" height="54" fill="#56cc9d" opacity="0.72"/>
<rect x="360" y="144" width="54" height="54" fill="#2f80ed" opacity="0.72"/>
<rect x="414" y="144" width="54" height="54" fill="#56cc9d" opacity="0.72"/>
<rect x="36" y="198" width="54" height="54" fill="#56cc9d" opacity="0.72"/>
<rect x="90" y="198" width="54" height="54" fill="#2f80ed" opacity="0.72"/>
<rect x="144" y="198" width="54" height="54" fill="#56cc9d" opacity="0.72"/>
<rect x="198" y="198" width="54" height="54" fill="#2f80ed" opacity="0.72"/>
<rect x="252" y="198" width="54" height="54" fill="#56cc9d" opacity="0.72"/>
<rect x="306" y="198" width="54" height="54" fill="#2f80ed" opacity="0.72"/>
<rect x="360" y="198" width="54" height="54" fill="#56cc9d" opacity="0.72"/>
<rect x="414" y="198" width="54" height="54" fill="#2f80ed" opacity="0.72"/>
<rect x="36" y="252" width="54" height="54" fill="#2f80ed" opacity="0.72"/>
<rect x="90" y="252" width="54" height="54" fill="#56cc9d" opacity="0.72"/>
<rect x="144" y="252" width="54" height="54" fill="#2f80ed" opacity="0.72"/>
<rect x="198" y="252" width="54" height="54" fill="#56cc9d" opacity="0.72"/>
<rect x="252" y="252" width="54" height="54" fill="#2f80ed" opacity="0.72"/>
<rect x="306" y="252" width="54" height="54" fill="#56cc9d" opacity="0.72"/>
<rect x="360" y="252" width="54" height="54" fill="#2f80ed" opacity="0.72"/>
<rect x="414" y="252" width="54" height="54" fill="#56cc9d" opacity="0.72"/>
<rect x="36" y="306" width="54" height="54" fill="#56cc9d" opacity="0.72"/>
<rect x="90" y="306" width="54" height="54" fill="#2f80ed" opacity="0.72"/>
<rect x="144" y="306" width="54" height="54" fill="#56cc9d" opacity="0.72"/>
<rect x="198" y="306" width="54" height="54" fill="#2f80ed" opacity="0.72"/>
<rect x="252" y="306" width="54" height="54" fill="#56cc9d" opacity="0.72"/>
<rect x="306" y="306" width="54" height="54" fill="#2f80ed" opacity="0.72"/>
<rect x="360" y="306" width="54" height="54" fill="#56cc9d" opacity="0.72"/>
<rect x="414" y="306" width="54" height="54" fill="#2f80ed" opacity="0.72"/>
<rect x="36" y="360" width="54" height="54" fill="#2f80ed" opacity="0.72"/>
<rect x="90" y="360" width="54" height="54" fill="#56cc9d" opacity="0.72"/>
<rect x="144" y="360" width="54" height="54" fill="#2f80ed" opacity="0.72"/>
<rect x="198" y="360" width="54" height="54" fill="#56cc9d" opacity="0.72"/>
<rect x="252" y="360" width="54" height="54" fill="#2f80ed" opacity="0.72"/>
<rect x="306" y="360" width="54" height="54" fill="#56cc9d" opacity="0.72"/>
<rect x="360" y="360" width="54" height="54" fill="#2f80ed" opacity="0.72"/>
<rect x="414" y="360" width="54" height="54" fill="#56cc9d" opacity="0.72"/>
<rect x="36" y="414" width="54" height="54" fill="#56cc9d" opacity="0.72"/>
<rect x="90" y="414" width="54" height="54" fill="#2f80ed" opacity="0.72"/>
<rect x="144" y="414" width="54" height="54" fill="#56cc9d" opacity="0.72"/>
<rect x="198" y="414" width="54" height="54" fill="#2f80ed" opacity="0.72"/>
<rect x="252" y="414" width="54" height="54" fill="#56cc9d" opacity="0.72"/>
<rect x="306" y="414" width="54" height="54" fill="#2f80ed" opacity="0.72"/>
<rect x="360" y="414" width="54" height="54" fill="#56cc9d" opacity="0.72"/>
<rect x="414" y="414" width="54" height="54" fill="#2f80ed" opacity="0.72"/>
<line x1="36" y1="36" x2="468" y2="36" stroke="#111111" stroke-width="1"/>
<line x1="36" y1="36" x2="36" y2="468" stroke="#111111" stroke-width="1"/>
<line x1="36" y1="90" x2="468" y2="90" stroke="#ffffff" stroke-width="1"/>
<line x1="90" y1="36" x2="90" y2="468" stroke="#ffffff" stroke-width="1"/>
<line x1="36" y1="144" x2="468" y2="144" stroke="#ffffff" stroke-width="1"/>
<line x1="144" y1="36" x2="144" y2="468" stroke="#ffffff" stroke-width="1"/>
<line x1="36" y1="198" x2="468" y2="198" stroke="#ffffff" stroke-width="1"/>
<line x1="198" y1="36" x2="198" y2="468" stroke="#ffffff" stroke-width="1"/>
<line x1="36" y1="252" x2="468" y2="252" stroke="#ffffff" stroke-width="1"/>
<line x1="252" y1="36" x2="252" y2="468" stroke="#ffffff" stroke-width="1"/>
<line x1="36" y1="306" x2="468" y2="306" stroke="#ffffff" stroke-width="1"/>
<line x1="306" y1="36" x2="306" y2="468" stroke="#ffffff" stroke-width="1"/>
<line x1="36" y1="360" x2="468" y2="360" stroke="#ffffff" stroke-width="1"/>
<line x1="360" y1="36" x2="360" y2="468" stroke="#ffffff" stroke-width="1"/>
<line x1="36" y1="414" x2="468" y2="414" stroke="#ffffff" stroke-width="1"/>
<line x1="414" y1="36" x2="414" y2="468" stroke="#ffffff" stroke-width="1"/>
<line x1="36" y1="468" x2="468" y2="468" stroke="#111111" stroke-width="1"/>
<line x1="468" y1="36" x2="468" y2="468" stroke="#111111" stroke-width="1"/>
</svg>